<svg xmlns="http://www.w3.org/2000/svg" xmlns:xlink="http://www.w3.org/1999/xlink" version="1.1" id="Layer_1" x="0px" y="0px" width="81.945px" height="100px" viewBox="0 0 81.945 100" enable-background="new 0 0 81.945 100" xml:space="preserve">
<circle cx="9.028" cy="14.583" r="9.028"/>
<path d="M72.917,23.611c-4.436,0-8.116,3.201-8.876,7.416c0,0.003-0.008,0.004-0.008,0.006l-2.485,13.229L47.008,50.32  c-2.124,0.886-3.128,3.324-2.244,5.449c0.668,1.6,2.217,2.565,3.85,2.565c0.533,0,1.077-0.104,1.601-0.321l15.018-6.259v0.002  l1.649-0.688c1.323-0.552,2.271-1.747,2.506-3.161l1.503-9.019h2.815l-1.578,9.474c-0.395,2.374-1.956,4.344-4.179,5.269  l-2.518,1.05l2.624,38.374c0,3.836,3.11,6.944,6.944,6.944c3.836,0,6.945-3.108,6.945-6.944V32.639  C81.945,27.653,77.903,23.611,72.917,23.611z"/>
<g>
	<polygon points="36.339,48.479 28.629,51.698 29.167,53.004 29.617,54.099 37.318,50.884  "/>
	<path d="M38.576,53.97l-0.209-0.513l-7.692,3.211l0.194,0.473c0.663,1.61,2.216,2.583,3.855,2.583c0.528,0,1.065-0.102,1.584-0.314   C38.436,58.533,39.451,56.098,38.576,53.97z"/>
	<path d="M20.355,38.889h3.004l4.213,10.241l7.718-3.223l-6.715-16.485c0,0-0.007,0.002-0.008,0.002   c-1.296-3.396-4.576-5.813-8.428-5.813c-4.986,0-9.028,4.042-9.028,9.027c0,0.383,0.032,0.757,0.078,1.126l4.089,59.291   c0,3.836,3.11,6.944,6.944,6.944c3.835,0,6.944-3.108,6.944-6.944V59.698c-0.341-0.459-0.642-0.954-0.867-1.501L20.355,38.889z"/>
</g>
<polygon points="77.778,8.333 55.555,8.333 57.972,3.901 56.25,0 77.778,4.167 "/>
<path d="M58.369,11.111c-0.018,0.23-0.035,0.459-0.035,0.694c0,4.986,4.042,9.028,9.027,9.028c4.986,0,9.028-4.042,9.028-9.028  c0-0.235-0.018-0.464-0.035-0.694H58.369z"/>
</svg>