<?xml version="1.0" encoding="utf-8"?>
<!-- Generator: Adobe Illustrator 15.1.0, SVG Export Plug-In . SVG Version: 6.00 Build 0)  -->
<!DOCTYPE svg PUBLIC "-//W3C//DTD SVG 1.1//EN" "http://www.w3.org/Graphics/SVG/1.1/DTD/svg11.dtd">
<svg version="1.1" id="Layer_1" xmlns="http://www.w3.org/2000/svg" xmlns:xlink="http://www.w3.org/1999/xlink" x="0px" y="0px"
	 width="86.571px" height="100px" viewBox="0 0 86.571 100" enable-background="new 0 0 86.571 100" xml:space="preserve">
<polygon points="47.682,20.833 47.682,26.389 81.016,26.389 81.016,94.444 31.016,94.444 31.016,38.984 25.459,36.846 
	25.459,94.444 25.459,100 81.016,100 86.571,100 86.571,26.389 86.571,20.833 "/>
<polygon points="43.516,29.212 43.516,18.811 31.016,23.62 18.516,18.811 18.516,29.212 31.016,34.022 "/>
<polygon points="9.944,12.72 9.942,12.721 8.577,12.197 8.553,12.185 8.544,12.202 0,27.19 3.932,28.712 10.182,17.698 
	10.182,31.094 14.349,32.706 14.349,14.416 9.961,12.728 "/>
<polygon points="31.016,20.833 58.099,10.417 31.016,0 3.932,10.417 8.565,12.177 25.212,5.751 31.016,7.983 14.371,14.41 "/>
<rect x="36.571" y="38.889" width="25" height="2.777"/>
<rect x="36.571" y="50" width="25" height="2.777"/>
<rect x="36.571" y="61.11" width="25" height="2.779"/>
<rect x="36.571" y="72.223" width="25" height="2.777"/>
<rect x="36.571" y="83.333" width="25" height="2.777"/>
<polygon points="69.904,36.111 69.904,38.889 67.126,38.889 67.126,41.667 69.904,41.667 69.904,44.444 72.682,44.444 
	72.682,41.667 75.459,41.667 75.459,38.889 72.682,38.889 72.682,36.111 "/>
<rect x="67.126" y="50" width="8.333" height="2.777"/>
<polygon points="67.126,63.89 69.904,63.89 69.904,66.667 72.682,66.667 72.682,63.89 75.459,63.89 75.459,61.11 72.682,61.11 
	72.682,58.333 69.904,58.333 69.904,61.11 67.126,61.11 "/>
<rect x="67.126" y="72.223" width="8.333" height="2.777"/>
<polygon points="67.126,86.11 69.904,86.11 69.904,88.89 72.682,88.89 72.682,86.11 75.459,86.11 75.459,83.333 72.682,83.333 
	72.682,80.556 69.904,80.556 69.904,83.333 67.126,83.333 "/>
</svg>
