<svg xmlns="http://www.w3.org/2000/svg" xmlns:xlink="http://www.w3.org/1999/xlink" version="1.1" id="Layer_1" x="0px" y="0px" width="100px" height="100px" viewBox="0 0 100 100" enable-background="new 0 0 100 100" xml:space="preserve">
<path d="M100,75c0-2.777,0-5.556-1.389-5.556c-5.556,0-12.5,6.944-16.667,6.944h-4.167c-5.613-2.658-12.048-4.684-18.762-6.072  c-4.065-3.164-9.093-10.594-10.404-10.594c-0.94,0-6.33,5.086-9.718,8.376C20.554,67.794,4.013,72.313,0,81.944  c4.285,9.427,23.379,12.503,43.247,11.522c2.808,2.834,6.961,6.533,9.531,6.533c1.89,0,1.209-4.492,0.581-7.369  c3.654-0.425,7.248-0.978,10.703-1.64c4.323,2.044,10.564,4.842,12.327,4.842c1.704,0,1.84-4.696,1.688-8.333h3.867  c4.167,0,11.111,6.944,16.667,6.944c1.389,0,1.389-2.777,1.389-5.556c0-4.422-2.777-5.556-2.777-6.944S100,79.422,100,75z   M11.111,81.944c-1.534,0-2.778-1.243-2.778-2.777s1.244-2.778,2.778-2.778c1.534,0,2.777,1.244,2.777,2.778  S12.645,81.944,11.111,81.944z"/>
<path d="M100,44.444c-1.736,0.694-3.473,1.389-5.556,1.389c-4.167,0-6.944-2.778-11.111-2.778c-4.166,0-6.944,2.778-11.11,2.778  c-4.167,0-6.945-2.778-11.111-2.778c-4.167,0-6.944,2.778-11.111,2.778c-4.167,0-6.944-2.778-11.111-2.778  c-4.167,0-6.944,2.778-11.111,2.778s-6.944-2.778-11.111-2.778c-4.167,0-6.944,2.778-11.111,2.778c-2.083,0-3.819-0.692-5.556-1.386  v8.333c1.736,0.694,3.472,1.387,5.556,1.387c4.167,0,6.944-2.778,11.111-2.778c4.167,0,6.945,2.778,11.111,2.778  s6.944-2.778,11.111-2.778c4.167,0,6.945,2.778,11.111,2.778c4.167,0,6.944-2.778,11.111-2.778c4.166,0,6.944,2.778,11.111,2.778  c4.166,0,6.944-2.778,11.11-2.778c4.167,0,6.944,2.778,11.111,2.778c2.083,0,3.819-0.694,5.556-1.39V44.444z"/>
<path d="M62.5,26.389c0,6.904-5.597,12.5-12.5,12.5c-6.904,0-12.5-5.596-12.5-12.5C37.5,19.485,50,0,50,0S62.5,19.485,62.5,26.389z"/>
</svg>