<svg xmlns="http://www.w3.org/2000/svg" xmlns:xlink="http://www.w3.org/1999/xlink" version="1.1" id="Layer_1" x="0px" y="0px" width="84.368px" height="100px" viewBox="0 0 84.368 100" enable-background="new 0 0 84.368 100" xml:space="preserve">
<polygon points="67.517,15.48 52.036,15.48 52.036,0 32.334,0 32.334,15.48 16.854,15.48 16.854,35.183 32.334,35.183   32.334,50.664 52.036,50.664 52.036,35.183 67.517,35.183 "/>
<g>
	<g>
		<path d="M75.567,62.252v-17.05c0-2.417,1.98-4.388,4.413-4.388c2.424,0,4.388,1.971,4.388,4.388v23.349    c0,3.229-1.162,6.346-3.247,8.783L66.56,92.795c-1.442,1.359-1.799,2.564-1.799,4.391V100H48.915l-0.02-6.699    c0-2.551-0.209-5.959,2.986-9.303l18.474-18.551c0.657-0.635,1.521-0.982,2.437-0.982c1.932,0,3.504,1.568,3.504,3.498    c0,0.834-0.295,1.645-0.835,2.279l-8.911,9.547c-0.575,0.678-1.553,1.955-2.038,3.518c-0.264,0.811-0.339,1.605-0.352,2.51h2.867    c0.012-0.646,0.059-1.164,0.214-1.646c0.28-0.904,0.84-1.715,1.259-2.236l9.048-9.926c1.138-1.148,1.76-2.633,1.76-4.193    C79.307,65.471,77.898,63.316,75.567,62.252z"/>
	</g>
</g>
<g>
	<g>
		<path d="M8.801,62.252v-17.05c0-2.417-1.981-4.388-4.415-4.388C1.962,40.813,0,42.784,0,45.202v23.349    c0,3.229,1.161,6.346,3.246,8.783l14.561,15.461c1.444,1.359,1.798,2.564,1.798,4.391V100h15.849l0.019-6.699    c0-2.551,0.208-5.959-2.984-9.303L14.014,65.447c-0.661-0.633-1.524-0.979-2.437-0.979c-1.933,0-3.507,1.568-3.507,3.496    c0,0.836,0.295,1.645,0.835,2.281l8.913,9.545c0.575,0.678,1.553,1.953,2.039,3.516c0.261,0.812,0.335,1.605,0.352,2.512H17.34    c-0.011-0.648-0.06-1.166-0.213-1.648c-0.28-0.904-0.84-1.713-1.261-2.232l-9.047-9.93c-1.138-1.148-1.759-2.633-1.759-4.193    C5.061,65.471,6.468,63.316,8.801,62.252z"/>
	</g>
</g>
</svg>