<svg xmlns="http://www.w3.org/2000/svg" xmlns:xlink="http://www.w3.org/1999/xlink" version="1.1" id="Layer_1" x="0px" y="0px" width="75px" height="100px" viewBox="339 -0.5 75 100" enable-background="new 339 -0.5 75 100" xml:space="preserve">
<polygon fill="#000000" points="379.058,84.987 376.5,86.313 373.942,84.987 351.714,73.464 339,80.057 376.5,99.5 414,80.057   401.286,73.464 "/>
<polygon fill="#000000" points="379.058,65.543 376.5,66.869 373.942,65.543 351.714,54.02 339,60.612 376.5,80.056 414,60.612   401.286,54.02 "/>
<path fill="#000000" d="M376.5-0.5c-7.67,0-13.889,6.219-13.889,13.889c0,7.672,13.889,27.779,13.889,27.779  s13.889-20.107,13.889-27.779C390.389,5.719,384.17-0.5,376.5-0.5z M376.5,18.944c-3.068,0-5.556-2.487-5.556-5.556  c0-3.068,2.487-5.555,5.556-5.555s5.556,2.487,5.556,5.555C382.056,16.457,379.568,18.944,376.5,18.944z"/>
<path fill="#000000" d="M389.244,28.33c-1.322,2.492-2.737,4.931-4.074,7.121c3.988,1.253,6.607,3.345,6.607,5.715  c0,3.834-6.84,6.945-15.277,6.945s-15.277-3.11-15.277-6.945c0-2.371,2.619-4.462,6.607-5.715c-1.337-2.19-2.752-4.629-4.074-7.121  L339,41.168l37.5,19.443L414,41.168L389.244,28.33z"/>
</svg>