<svg xmlns="http://www.w3.org/2000/svg" xmlns:xlink="http://www.w3.org/1999/xlink" version="1.1" id="Layer_1" x="0px" y="0px" width="100px" height="84.719px" viewBox="0 0 100 84.719" enable-background="new 0 0 100 84.719" xml:space="preserve">
<path d="M92.361,43.055c-4.219,0-7.64,1.244-7.64,2.778v2.778l0,0c0.003,1.533,3.422,2.776,7.64,2.776  c4.217,0,7.636-1.243,7.639-2.776l0,0v-2.778C100,44.299,96.58,43.055,92.361,43.055z"/>
<path d="M92.361,70.833c-4.219,0-7.64-1.244-7.64-2.778v2.778c0.003,1.532,3.422,2.776,7.64,2.776c4.217,0,7.636-1.244,7.639-2.776  v-2.778C100,69.589,96.58,70.833,92.361,70.833z"/>
<path d="M92.361,65.277c-4.219,0-7.64-1.244-7.64-2.777v2.777c0.003,1.532,3.422,2.776,7.64,2.776c4.217,0,7.636-1.244,7.639-2.776  V62.5C100,64.033,96.58,65.277,92.361,65.277z"/>
<path d="M92.361,59.722c-4.219,0-7.64-1.244-7.64-2.778v2.778c0.003,1.533,3.422,2.776,7.64,2.776c4.217,0,7.636-1.243,7.639-2.776  v-2.778C100,58.478,96.58,59.722,92.361,59.722z"/>
<path d="M92.361,54.167c-4.219,0-7.64-1.244-7.64-2.778v2.778c0.003,1.533,3.422,2.776,7.64,2.776c4.217,0,7.636-1.244,7.639-2.776  V51.39C100,52.924,96.58,54.167,92.361,54.167z"/>
<path d="M92.361,76.389c-4.219,0-7.64-1.244-7.64-2.778v2.778c0.003,1.532,3.422,2.776,7.64,2.776c4.217,0,7.636-1.244,7.639-2.776  V73.61C100,75.145,96.58,76.389,92.361,76.389z"/>
<path d="M92.361,81.942c-4.219,0-7.64-1.243-7.64-2.777v2.777c0.003,1.533,3.422,2.776,7.64,2.776c4.217,0,7.636-1.243,7.639-2.776  v-2.777C100,80.699,96.58,81.942,92.361,81.942z"/>
<path d="M74.306,59.722c-4.219,0-7.639,1.244-7.639,2.778v2.777c0.002,1.532,3.421,2.776,7.639,2.776  c4.217,0,7.637-1.244,7.639-2.776V62.5C81.944,60.966,78.524,59.722,74.306,59.722z"/>
<path d="M74.306,70.833c-4.219,0-7.639-1.244-7.639-2.778v2.778c0.002,1.532,3.421,2.776,7.639,2.776  c4.217,0,7.637-1.244,7.639-2.776v-2.778C81.944,69.589,78.524,70.833,74.306,70.833z"/>
<path d="M74.306,76.389c-4.219,0-7.639-1.244-7.639-2.778v2.778c0.002,1.532,3.421,2.776,7.639,2.776  c4.217,0,7.637-1.244,7.639-2.776V73.61C81.944,75.145,78.524,76.389,74.306,76.389z"/>
<path d="M74.306,81.942c-4.219,0-7.639-1.243-7.639-2.777v2.777c0.002,1.533,3.421,2.776,7.639,2.776  c4.217,0,7.637-1.243,7.639-2.776v-2.777C81.944,80.699,78.524,81.942,74.306,81.942z"/>
<path d="M76.062,57.01c-2.688-7.728-9.402-19.714-26.022-34.683V22.29H50H27.819h-0.042v0.038  C-2.27,49.389,0.041,66.734,0.041,66.734c0,8.438,6.84,15.277,15.278,15.277h47.222c0.455,0,0.903-0.03,1.348-0.067V65.277V62.5  c0-4.102,5.611-5.556,10.417-5.556C74.883,56.944,75.473,56.966,76.062,57.01z M41.667,72.222h-5.556v-5.556h5.556V72.222z   M45.743,55.612c-2.367,1.853-4.076,3.192-4.076,6.888h-5.556c0-6.402,3.587-9.211,6.207-11.262  c2.374-1.858,3.515-2.864,3.515-5.405c0-4.868-2.077-6.944-6.944-6.944c-4.868,0-6.945,2.076-6.945,6.944h-5.555  c0-7.944,4.556-12.5,12.5-12.5c7.944,0,12.5,4.556,12.5,12.5C51.389,51.192,48.258,53.643,45.743,55.612z"/>
<path d="M38.848,16.734L38.848,16.734h0.042h0.041h0h11.11c0,0,11.383-11.716,6.904-13.956C54.167,1.39,50.848,0,48.652,0  c-2.818,0-5.596,2.777-9.763,2.777C34.722,2.777,31.944,0,29.126,0c-2.196,0-5.515,1.39-8.292,2.779  c-4.479,2.239,6.904,13.956,6.904,13.956H38.848z"/>
</svg>