<?xml version="1.0" encoding="utf-8"?>
<!-- Generator: Adobe Illustrator 15.1.0, SVG Export Plug-In . SVG Version: 6.00 Build 0)  -->
<!DOCTYPE svg PUBLIC "-//W3C//DTD SVG 1.1//EN" "http://www.w3.org/Graphics/SVG/1.1/DTD/svg11.dtd">
<svg version="1.1" id="Layer_1" xmlns="http://www.w3.org/2000/svg" xmlns:xlink="http://www.w3.org/1999/xlink" x="0px" y="0px"
	 width="100px" height="45.711px" viewBox="0 0 100 45.711" enable-background="new 0 0 100 45.711" xml:space="preserve">
<path d="M53.824,38.786l4.001-18.004H50.9L55.519,0c-16.123,1.311-21.87,8.598-30.59,12.473c-7.225,3.211-18.197,7.977-20.774,9.694
	C0,24.937,0,27.707,0,33.246c0,5.54,2.77,5.54,5.54,5.54c2.014,0,4.383,0,7.021,0c-0.057-0.454-0.096-0.914-0.096-1.385
	c0-6.109,4.97-11.079,11.08-11.079c6.109,0,11.079,4.97,11.079,11.079c0,0.471-0.039,0.931-0.096,1.385
	C40.336,38.786,47.83,38.786,53.824,38.786z"/>
<path d="M78.941,45.711c-4.582,0-8.31-3.728-8.31-8.31s3.728-8.31,8.31-8.31s8.31,3.728,8.31,8.31S83.523,45.711,78.941,45.711z
	 M78.941,31.861c-3.056,0-5.54,2.484-5.54,5.54c0,3.055,2.484,5.539,5.54,5.539c3.055,0,5.539-2.484,5.539-5.539
	C84.48,34.346,81.996,31.861,78.941,31.861z"/>
<path d="M96.886,10.69l-0.179-0.595l-0.563-0.263c-0.851-0.397-21.022-9.719-36.362-9.824L58.34,0l-4.012,18.012h6.95l-4.605,20.774
	h8.488h2.796c-0.057-0.454-0.097-0.914-0.097-1.385s0.04-0.931,0.097-1.385c0.686-5.456,5.344-9.694,10.983-9.694
	s10.297,4.238,10.983,9.694c0.057,0.454,0.096,0.914,0.096,1.385s-0.039,0.931-0.096,1.385h2.795h6.849l0.139-1.232
	C101.106,24.954,97.058,11.266,96.886,10.69z M97.072,36.017h-4.353c-0.697-6.988-6.609-12.465-13.778-12.465
	c-7.17,0-13.081,5.477-13.779,12.465h-4.985l4.605-20.774H57.85l2.662-12.44c13.204,0.479,30.57,7.799,33.89,9.28
	C95.126,14.738,97.904,25.757,97.072,36.017z"/>
<circle cx="23.544" cy="37.401" r="8.31"/>
</svg>
